<svg width="144" height="138" viewBox="0 0 144 138" fill="none" xmlns="http://www.w3.org/2000/svg">
<path fill-rule="evenodd" clip-rule="evenodd" d="M110.053 106.549C108.729 105.225 106.533 105.428 105.355 106.882C96.6466 117.63 83.3408 124.5 68.4304 124.5C43.2047 124.5 22.5717 104.836 21.0236 80.0006C20.9205 78.3469 19.5872 77 17.9304 77H10.9304C9.27352 77 7.92264 78.3449 8.00345 79.9997C9.56689 112.019 36.023 137.5 68.4304 137.5C87.2802 137.5 104.117 128.879 115.212 115.366C116.16 114.211 116.036 112.532 114.98 111.476L110.053 106.549Z" fill="#FF0F28"/>
<path d="M3 62H15.6364V48.1818H22.6364C33.25 48.1818 40.3636 41.9318 40.3636 31.9091C40.3636 22 33.4318 15.4545 23.0909 15.4545H3V62ZM15.6364 38.3636V25.5455H20.0909C24.5227 25.5455 27.1818 27.9091 27.1818 31.9091C27.1818 35.8864 24.5227 38.3636 20.0909 38.3636H15.6364ZM54.6 62H67.2364V48.1818H74.2364C84.85 48.1818 91.9636 41.9318 91.9636 31.9091C91.9636 22 85.0318 15.4545 74.6909 15.4545H54.6V62ZM67.2364 38.3636V25.5455H71.6909C76.1227 25.5455 78.7818 27.9091 78.7818 31.9091C78.7818 35.8864 76.1227 38.3636 71.6909 38.3636H67.2364ZM106.2 62H139.655V51.8182H118.836V43.8182H138.018V33.6364H118.836V25.6364H139.745V15.4545H106.2V62Z" fill="#FF0F28"/>
<mask id="path-3-inside-1" fill="white">
<path fill-rule="evenodd" clip-rule="evenodd" d="M136.566 92.3559C136.574 92.3484 136.581 92.3409 136.589 92.3334C140.639 88.2833 140.639 81.7169 136.589 77.6668C132.568 73.6464 126.068 73.6169 122.011 77.5784C122.011 77.5787 122.011 77.5787 122.01 77.5784V77.5784C117.96 73.5283 111.394 73.5283 107.344 77.5784C103.293 81.6284 103.293 88.1949 107.344 92.245V92.245C107.344 92.245 107.344 92.2451 107.344 92.2452L107.338 92.2503C107.336 92.2532 107.336 92.2578 107.338 92.2607L119.953 104.875C121.083 106.006 122.916 106.006 124.047 104.875L136.566 92.3559Z"/>
</mask>
<path fill-rule="evenodd" clip-rule="evenodd" d="M136.566 92.3559C136.574 92.3484 136.581 92.3409 136.589 92.3334C140.639 88.2833 140.639 81.7169 136.589 77.6668C132.568 73.6464 126.068 73.6169 122.011 77.5784C122.011 77.5787 122.011 77.5787 122.01 77.5784V77.5784C117.96 73.5283 111.394 73.5283 107.344 77.5784C103.293 81.6284 103.293 88.1949 107.344 92.245V92.245C107.344 92.245 107.344 92.2451 107.344 92.2452L107.338 92.2503C107.336 92.2532 107.336 92.2578 107.338 92.2607L119.953 104.875C121.083 106.006 122.916 106.006 124.047 104.875L136.566 92.3559Z" fill="#FF0F28"/>
<path d="M136.566 92.3559L135.651 91.4355L135.649 91.4383L136.566 92.3559ZM124.047 104.875L123.129 103.958L124.047 104.875ZM122.011 77.5784L122.918 78.5068L122.011 77.5784ZM135.671 91.4158C135.664 91.4225 135.658 91.429 135.651 91.4355L137.481 93.2762C137.489 93.2678 137.498 93.2594 137.506 93.251L135.671 91.4158ZM135.671 78.5843C139.214 82.1277 139.214 87.8725 135.671 91.4158L137.506 93.251C142.063 88.6941 142.063 81.306 137.506 76.7492L135.671 78.5843ZM122.918 78.5068C126.467 75.0412 132.154 75.0671 135.671 78.5843L137.506 76.7492C132.983 72.2257 125.669 72.1926 121.105 76.65L122.918 78.5068ZM108.261 78.4959C111.804 74.9526 117.549 74.9526 121.093 78.4959L122.928 76.6608C118.371 72.1039 110.983 72.104 106.426 76.6608L108.261 78.4959ZM108.261 91.3274C104.718 87.7841 104.718 82.0392 108.261 78.4959L106.426 76.6608C101.869 81.2176 101.869 88.6057 106.426 93.1626L108.261 91.3274ZM108.256 93.1679L108.261 93.1628L106.426 91.3276L106.421 91.3327L108.256 93.1679ZM120.871 103.958L108.256 91.3431L106.421 93.1782L119.035 105.793L120.871 103.958ZM123.129 103.958C122.505 104.581 121.494 104.581 120.871 103.958L119.035 105.793C120.673 107.43 123.327 107.43 124.964 105.793L123.129 103.958ZM135.649 91.4383L123.129 103.958L124.964 105.793L137.484 93.2734L135.649 91.4383ZM106.426 93.1626C105.919 92.6559 105.919 91.8343 106.426 91.3276L108.261 93.1628C108.768 92.656 108.768 91.8342 108.261 91.3274L106.426 93.1626ZM106.421 91.3327C105.911 91.8424 105.911 92.6687 106.421 93.1782L108.256 91.3431C108.76 91.847 108.76 92.6639 108.256 93.1679L106.421 91.3327ZM121.105 76.65C121.607 76.1592 122.42 76.1532 122.928 76.6608L121.093 78.4959C121.601 79.0042 122.415 78.9982 122.918 78.5068L121.105 76.65Z" fill="#FF0F28" mask="url(#path-3-inside-1)"/>
</svg>
